<svg width="16" height="17" viewBox="0 0 16 17" fill="none" xmlns="http://www.w3.org/2000/svg">
<path d="M8 14.5C7.81111 14.5 7.65278 14.4361 7.525 14.3083C7.39722 14.1806 7.33333 14.0222 7.33333 13.8333V11.1667C7.33333 10.9778 7.39722 10.8194 7.525 10.6917C7.65278 10.5639 7.81111 10.5 8 10.5C8.18889 10.5 8.34722 10.5639 8.475 10.6917C8.60278 10.8194 8.66667 10.9778 8.66667 11.1667V11.8333H13.3333C13.5222 11.8333 13.6806 11.8972 13.8083 12.025C13.9361 12.1528 14 12.3111 14 12.5C14 12.6889 13.9361 12.8472 13.8083 12.975C13.6806 13.1028 13.5222 13.1667 13.3333 13.1667H8.66667V13.8333C8.66667 14.0222 8.60278 14.1806 8.475 14.3083C8.34722 14.4361 8.18889 14.5 8 14.5ZM2.66667 13.1667C2.47778 13.1667 2.31944 13.1028 2.19167 12.975C2.06389 12.8472 2 12.6889 2 12.5C2 12.3111 2.06389 12.1528 2.19167 12.025C2.31944 11.8972 2.47778 11.8333 2.66667 11.8333H5.33333C5.52222 11.8333 5.68056 11.8972 5.80833 12.025C5.93611 12.1528 6 12.3111 6 12.5C6 12.6889 5.93611 12.8472 5.80833 12.975C5.68056 13.1028 5.52222 13.1667 5.33333 13.1667H2.66667ZM5.33333 10.5C5.14444 10.5 4.98611 10.4361 4.85833 10.3083C4.73056 10.1806 4.66667 10.0222 4.66667 9.83333V9.16667H2.66667C2.47778 9.16667 2.31944 9.10278 2.19167 8.975C2.06389 8.84722 2 8.68889 2 8.5C2 8.31111 2.06389 8.15278 2.19167 8.025C2.31944 7.89722 2.47778 7.83333 2.66667 7.83333H4.66667V7.16667C4.66667 6.97778 4.73056 6.81944 4.85833 6.69167C4.98611 6.56389 5.14444 6.5 5.33333 6.5C5.52222 6.5 5.68056 6.56389 5.80833 6.69167C5.93611 6.81944 6 6.97778 6 7.16667V9.83333C6 10.0222 5.93611 10.1806 5.80833 10.3083C5.68056 10.4361 5.52222 10.5 5.33333 10.5ZM8 9.16667C7.81111 9.16667 7.65278 9.10278 7.525 8.975C7.39722 8.84722 7.33333 8.68889 7.33333 8.5C7.33333 8.31111 7.39722 8.15278 7.525 8.025C7.65278 7.89722 7.81111 7.83333 8 7.83333H13.3333C13.5222 7.83333 13.6806 7.89722 13.8083 8.025C13.9361 8.15278 14 8.31111 14 8.5C14 8.68889 13.9361 8.84722 13.8083 8.975C13.6806 9.10278 13.5222 9.16667 13.3333 9.16667H8ZM10.6667 6.5C10.4778 6.5 10.3194 6.43611 10.1917 6.30833C10.0639 6.18056 10 6.02222 10 5.83333V3.16667C10 2.97778 10.0639 2.81944 10.1917 2.69167C10.3194 2.56389 10.4778 2.5 10.6667 2.5C10.8556 2.5 11.0139 2.56389 11.1417 2.69167C11.2694 2.81944 11.3333 2.97778 11.3333 3.16667V3.83333H13.3333C13.5222 3.83333 13.6806 3.89722 13.8083 4.025C13.9361 4.15278 14 4.31111 14 4.5C14 4.68889 13.9361 4.84722 13.8083 4.975C13.6806 5.10278 13.5222 5.16667 13.3333 5.16667H11.3333V5.83333C11.3333 6.02222 11.2694 6.18056 11.1417 6.30833C11.0139 6.43611 10.8556 6.5 10.6667 6.5ZM2.66667 5.16667C2.47778 5.16667 2.31944 5.10278 2.19167 4.975C2.06389 4.84722 2 4.68889 2 4.5C2 4.31111 2.06389 4.15278 2.19167 4.025C2.31944 3.89722 2.47778 3.83333 2.66667 3.83333H8C8.18889 3.83333 8.34722 3.89722 8.475 4.025C8.60278 4.15278 8.66667 4.31111 8.66667 4.5C8.66667 4.68889 8.60278 4.84722 8.475 4.975C8.34722 5.10278 8.18889 5.16667 8 5.16667H2.66667Z" fill="#1F1F1F"/>
</svg>
