<svg width="154" height="26" viewBox="0 0 154 26" fill="none" xmlns="http://www.w3.org/2000/svg">
<g clip-path="url(#clip0_3703_2160)">
<path d="M37.5494 9.41418C37.5494 9.41418 36.8458 5.05347 40.0849 4.45548C43.3241 3.85749 45.5089 3.79011 46.4238 6.38632C47.3387 8.98253 46.4238 9.41418 46.4238 9.41418H37.5494Z" fill="#FFD170"/>
<path d="M13.9833 14.137C13.9833 14.137 13.1529 10.1364 16.0328 9.53416C18.9128 8.93196 22.0336 8.51716 22.8471 11.1134C23.6606 13.7096 20.787 14.7561 20.787 14.7561L13.9833 14.137Z" fill="#F2A6D6"/>
<path d="M111.32 4.85976H107.207C105.852 4.85976 104.753 5.95424 104.753 7.30436V11.6503C104.753 13.0004 105.852 14.0949 107.207 14.0949H111.32C112.675 14.0949 113.774 13.0004 113.774 11.6503V7.30436C113.774 5.95424 112.675 4.85976 111.32 4.85976Z" fill="#9FC65F"/>
<path d="M137.828 4.45546H133.481C132.011 4.45546 130.819 5.64328 130.819 7.10852V11.9451C130.819 13.4103 132.011 14.5982 133.481 14.5982H137.828C139.298 14.5982 140.49 13.4103 140.49 11.9451V7.10852C140.49 5.64328 139.298 4.45546 137.828 4.45546Z" fill="#9FB5F9"/>
<path d="M-0.000287556 9.54261C-0.00498437 8.84304 0.0274609 8.1437 0.0969094 7.44754C0.146335 6.90827 0.259817 6.37674 0.434979 5.86413C0.577819 5.4506 0.801125 5.06923 1.09211 4.74184C1.38433 4.43048 1.73836 4.1831 2.13168 4.01541C2.60816 3.81533 3.11019 3.6821 3.62342 3.61955C4.29187 3.53467 4.96534 3.49527 5.63917 3.50164C6.49049 3.48399 7.34108 3.5624 8.1747 3.73536C8.74709 3.84926 9.28475 4.09516 9.74462 4.45337C10.1277 4.77398 10.4071 5.20036 10.5475 5.67883C10.7067 6.25541 10.7821 6.85174 10.7715 7.44964H9.22906C9.22906 7.20329 9.22906 6.97378 9.21427 6.76111C9.20592 6.56395 9.16671 6.36929 9.09806 6.18418C9.02808 6.0077 8.91986 5.84881 8.78112 5.71884C8.6014 5.56327 8.39134 5.44641 8.16414 5.37563C7.83469 5.26914 7.49464 5.19854 7.14993 5.16507C6.07299 5.06364 4.98856 5.06999 3.91289 5.18402C3.51495 5.22512 3.12501 5.32298 2.755 5.47459C2.47621 5.59019 2.23284 5.77681 2.04927 6.01573C1.87287 6.26898 1.75061 6.55566 1.69007 6.85797C1.60777 7.23873 1.56319 7.62661 1.55696 8.01605C1.54428 8.46104 1.53794 8.972 1.53794 9.54893C1.53794 10.1259 1.54428 10.6277 1.55696 11.0544C1.56349 11.439 1.60807 11.822 1.69007 12.1978C1.75164 12.4939 1.87393 12.7742 2.04927 13.0211C2.23401 13.2588 2.47705 13.4452 2.755 13.5622C3.12393 13.7182 3.51422 13.8183 3.91289 13.8591C4.48596 13.9238 5.06247 13.9533 5.63917 13.9475C6.14382 13.9526 6.64833 13.9273 7.14993 13.8717C7.49479 13.8334 7.83469 13.7593 8.16414 13.6507C8.39215 13.5766 8.60224 13.4561 8.78112 13.2969C8.92132 13.1608 9.02955 12.9954 9.09806 12.8126C9.16661 12.618 9.20578 12.4144 9.21427 12.2083C9.22484 11.9978 9.22906 11.7493 9.22906 11.4945H10.7673C10.7775 12.1069 10.7021 12.7178 10.5433 13.3095C10.4072 13.8006 10.1277 14.2404 9.7404 14.5729C9.28228 14.9369 8.74438 15.188 8.17048 15.3057C7.33747 15.4832 6.48659 15.5638 5.63494 15.5457C4.96099 15.5519 4.28743 15.5111 3.61919 15.4236C3.10616 15.36 2.60426 15.2268 2.12745 15.0277C1.73358 14.8601 1.37941 14.6119 1.08788 14.2992C0.798306 13.9724 0.575137 13.5927 0.430755 13.1811C0.25546 12.6757 0.141949 12.1512 0.0926826 11.6187C0.0243887 10.9289 -0.00664642 10.2358 -0.000287556 9.54261Z" fill="#222222"/>
<path d="M22.4418 13.7412C22.348 13.9553 22.2265 14.1563 22.0805 14.3392C21.9112 14.5878 21.6961 14.8022 21.4466 14.9708C21.1194 15.1758 20.7569 15.3186 20.3775 15.392C19.7996 15.5073 19.2108 15.5588 18.6216 15.5457C17.7931 15.5565 16.9652 15.4952 16.1473 15.3625C15.5606 15.2715 14.9942 15.0791 14.4739 14.794C14.0668 14.5671 13.7349 14.2268 13.5188 13.8149C13.3082 13.3697 13.2055 12.8814 13.2188 12.3894C13.2089 11.893 13.2643 11.3975 13.3836 10.9154C13.475 10.5503 13.638 10.2068 13.8633 9.90476C14.0672 9.63944 14.3287 9.4235 14.6281 9.27307C14.9509 9.11113 15.2942 8.99355 15.6487 8.92354C16.0615 8.83942 16.4806 8.78942 16.9017 8.77405C17.356 8.75299 17.8377 8.74457 18.3512 8.74457C18.9638 8.73679 19.5761 8.77479 20.1831 8.85827C20.5932 8.9143 20.9966 9.01093 21.3875 9.14674C21.6426 9.23327 21.8822 9.3598 22.0974 9.52153C22.2303 9.62628 22.3464 9.75052 22.4418 9.89001C22.4418 9.14674 22.4165 8.51084 22.3658 7.99497C22.3298 7.54871 22.2463 7.10755 22.1164 6.67897C22.0261 6.37164 21.8753 6.08532 21.6727 5.83673C21.4916 5.62808 21.2625 5.46624 21.005 5.36507C20.7087 5.24956 20.3968 5.1786 20.0795 5.15451C19.7267 5.12503 19.3252 5.1103 18.8709 5.1103C18.1652 5.1103 17.582 5.13135 17.1172 5.17557C16.7373 5.19917 16.3639 5.28525 16.0121 5.43035C15.7663 5.5339 15.5635 5.71818 15.4374 5.95254C15.3144 6.227 15.2566 6.52601 15.2684 6.82636H13.7323C13.7178 6.30204 13.8061 5.77994 13.9921 5.28927C14.168 4.86843 14.4698 4.51183 14.8563 4.26806C15.3429 3.97455 15.8829 3.77991 16.4453 3.69533C17.2469 3.56353 18.0586 3.50293 18.8709 3.51425C19.6759 3.49717 20.4793 3.59502 21.2565 3.80482C21.8748 3.97574 22.4262 4.33052 22.8369 4.82183C23.2804 5.39587 23.5796 6.06729 23.7096 6.78004C23.9076 7.80667 23.9975 8.8511 23.9779 9.89634V15.3225H22.4418V13.7412ZM18.8709 13.9517C19.4367 13.9598 20.0022 13.9204 20.5613 13.8338C20.9459 13.7798 21.3183 13.6601 21.6621 13.4801C21.9147 13.3478 22.121 13.1422 22.2538 12.8905C22.3768 12.633 22.4376 12.3503 22.4313 12.0651C22.4377 11.7832 22.3645 11.5053 22.22 11.2629C22.0533 11.019 21.8159 10.8317 21.5396 10.7259C21.1335 10.5664 20.7066 10.4657 20.2718 10.4269C19.6284 10.3575 18.9814 10.3259 18.3342 10.3322C17.5672 10.3322 16.946 10.349 16.4749 10.3827C16.0996 10.3935 15.7292 10.4698 15.3804 10.608C15.2639 10.6565 15.1583 10.7277 15.0698 10.8173C14.9812 10.907 14.9115 11.0134 14.8648 11.1302C14.7659 11.4317 14.7215 11.7482 14.7338 12.0651C14.7235 12.3901 14.7707 12.7144 14.8732 13.0232C14.9259 13.1519 15.0036 13.269 15.1019 13.3676C15.2001 13.4663 15.317 13.5446 15.4459 13.598C15.8413 13.7624 16.2624 13.8571 16.6904 13.878C17.2545 13.937 17.975 13.9602 18.8709 13.9602V13.9517Z" fill="#222222"/>
<path d="M34.4157 7.56962C34.421 7.17071 34.3927 6.77206 34.3312 6.37785C34.2884 6.08774 34.1484 5.82059 33.934 5.61983C33.6691 5.40449 33.3495 5.26671 33.0106 5.22187C32.4588 5.13362 31.9002 5.09486 31.3414 5.10606C30.7694 5.08852 30.1983 5.16464 29.651 5.33137C29.264 5.4527 28.9143 5.67007 28.6347 5.96305C28.3871 6.24174 28.2147 6.5787 28.1339 6.94215C28.0432 7.35709 27.9992 7.78084 28.0029 8.20551V15.3161H26.4647V3.83007H28.0029V5.65563C28.0707 5.41547 28.1702 5.18534 28.2988 4.97131C28.4668 4.69596 28.6906 4.45859 28.9559 4.27435C29.3023 4.03103 29.6873 3.84739 30.0948 3.7311C30.6635 3.57013 31.2533 3.49559 31.8443 3.51002C32.506 3.49002 33.1665 3.57968 33.7988 3.77532C34.254 3.92173 34.6598 4.19061 34.9714 4.55229C35.262 4.92056 35.4572 5.35444 35.5398 5.81565C35.644 6.39159 35.6935 6.97601 35.6877 7.5612L34.4157 7.56962Z" fill="#222222"/>
<path d="M42.5377 15.5373C41.6604 15.553 40.7843 15.4639 39.9282 15.272C39.2662 15.1407 38.6566 14.8207 38.1735 14.3509C37.6904 13.8811 37.3546 13.2816 37.2067 12.6252C36.9836 11.7303 36.8813 10.8098 36.9025 9.88793C36.8809 8.84087 36.983 7.79491 37.2067 6.77163C37.361 6.04724 37.6969 5.37357 38.1829 4.81342C38.6541 4.31376 39.2602 3.96057 39.9282 3.79642C40.7816 3.58646 41.6589 3.48877 42.5377 3.50584C43.1774 3.4962 43.8158 3.56337 44.4394 3.70588C44.9285 3.81882 45.3945 4.01469 45.817 4.28492C46.1856 4.52493 46.5012 4.8373 46.7446 5.20296C46.9788 5.55456 47.167 5.93454 47.3045 6.33367C47.453 6.78493 47.5473 7.25211 47.5855 7.72547C47.6362 8.25608 47.6616 8.81758 47.6616 9.40996L47.5327 10.0416H38.4301C38.4152 10.7494 38.4862 11.4564 38.6414 12.1472C38.7314 12.6123 38.9737 13.0344 39.3303 13.3474C39.701 13.62 40.1393 13.7867 40.598 13.8296C41.2411 13.9036 41.8883 13.9374 42.5356 13.9307C43.1196 13.9362 43.7035 13.9123 44.2851 13.8591C44.6649 13.8331 45.0373 13.7419 45.386 13.5896C45.6366 13.4794 45.8396 13.2838 45.9586 13.0379C46.0773 12.7453 46.1328 12.4311 46.1213 12.1157H47.6595C47.6732 12.6543 47.585 13.1908 47.3996 13.697C47.2273 14.1277 46.9264 14.4952 46.5375 14.7498C46.0561 15.0503 45.5184 15.2502 44.957 15.3372C44.1583 15.4767 43.3486 15.5437 42.5377 15.5373ZM42.5377 5.1061C42.0264 5.1061 41.5679 5.12084 41.1643 5.14611C40.8068 5.1654 40.4524 5.22401 40.1078 5.32088C39.8281 5.40022 39.5662 5.53246 39.3366 5.71041C39.1269 5.87451 38.9511 6.0776 38.8189 6.3084C38.6657 6.61078 38.5684 6.93815 38.5316 7.27488C38.4647 7.77246 38.4336 8.27417 38.4386 8.77617H46.1234C46.1427 8.16002 46.0758 7.54419 45.9248 6.9464C45.8086 6.53499 45.5907 6.15922 45.2909 5.85359C44.9831 5.55768 44.5979 5.35409 44.1795 5.26613C43.6402 5.1504 43.0893 5.09671 42.5377 5.1061Z" fill="#222222"/>
<path d="M69.6488 15.3183H68.1127V8.83514C68.122 8.2474 68.0881 7.65976 68.0113 7.07696C67.963 6.66229 67.8111 6.2663 67.5696 5.92519C67.3328 5.62103 67.005 5.39981 66.6336 5.29351C66.1171 5.14797 65.5812 5.08194 65.0447 5.09769C64.4443 5.08198 63.845 5.15796 63.2677 5.32299C62.8562 5.44203 62.4799 5.65879 62.1711 5.95467C61.9039 6.22513 61.7124 6.56048 61.6154 6.92746C61.5063 7.33962 61.4537 7.7646 61.459 8.19083V15.312H59.9208V3.83012H61.4611V5.64515C61.4611 5.62409 61.4907 5.55882 61.533 5.44512C61.5928 5.30188 61.6694 5.16618 61.7612 5.04084C61.8933 4.85862 62.0433 4.69004 62.2091 4.5376C62.4301 4.33747 62.6783 4.16947 62.9465 4.03857C63.2946 3.87033 63.6612 3.74313 64.0389 3.65957C64.5387 3.55276 65.0491 3.50261 65.5602 3.51007C66.0636 3.50407 66.5663 3.54923 67.0604 3.64482C67.4423 3.71934 67.8097 3.85441 68.1486 4.04489C68.4381 4.20972 68.6893 4.43358 68.886 4.70184C69.0814 4.9786 69.2338 5.28312 69.3382 5.60514C69.4577 5.38115 69.5993 5.16955 69.7608 4.97346C69.9896 4.70174 70.2616 4.46916 70.5658 4.28493C70.9684 4.04032 71.4038 3.85387 71.8589 3.73116C72.4792 3.56824 73.1193 3.4924 73.7606 3.50585C74.2916 3.49764 74.8219 3.54992 75.3411 3.66167C75.7385 3.74589 76.1172 3.90143 76.4588 4.12069C76.7549 4.31477 77.0045 4.57141 77.1899 4.87239C77.3841 5.19592 77.5266 5.54753 77.6125 5.91467C77.7177 6.35008 77.7835 6.79404 77.809 7.2412C77.8414 7.7297 77.8576 8.2596 77.8576 8.83092V15.3141H76.3194V8.83514C76.3262 8.25005 76.2902 7.66525 76.2116 7.08538C76.1639 6.67091 76.0128 6.27493 75.7721 5.93362C75.5344 5.63031 75.2069 5.40929 74.8361 5.30194C74.3195 5.15659 73.7837 5.09056 73.2471 5.10611C72.646 5.09042 72.0461 5.1664 71.468 5.33142C71.057 5.45145 70.6809 5.66809 70.3714 5.9631C70.1043 6.23355 69.9127 6.5689 69.8157 6.93588C69.7076 7.34824 69.6551 7.77308 69.6593 8.19924L69.6488 15.3183Z" fill="#222222"/>
<path d="M108.852 15.5373C108.235 15.5502 107.618 15.4851 107.016 15.3435C106.604 15.2422 106.203 15.1011 105.818 14.9224C105.509 14.7734 105.26 14.5229 105.115 14.2128C104.954 13.8886 104.834 13.6359 104.753 13.4548V15.3162H103.217V0H104.753V4.90816C104.845 4.74063 104.963 4.58856 105.102 4.45756C105.311 4.26574 105.552 4.11119 105.814 4.00065C106.2 3.83727 106.605 3.71926 107.018 3.64901C108.494 3.42332 109.999 3.47401 111.456 3.79851C112.116 3.95786 112.72 4.29595 113.201 4.77551C113.682 5.29826 114.019 5.93684 114.177 6.62844C114.583 8.54664 114.583 10.528 114.177 12.4462C114.019 13.1349 113.682 13.7702 113.201 14.2886C112.719 14.7642 112.115 15.0985 111.456 15.2551C110.603 15.4582 109.729 15.553 108.852 15.5373ZM108.852 13.9412C109.37 13.945 109.886 13.9218 110.401 13.8717C110.78 13.8382 111.153 13.7554 111.51 13.6254C111.793 13.5224 112.047 13.3534 112.25 13.1327C112.453 12.8979 112.603 12.6231 112.692 12.3262C112.807 11.9447 112.878 11.5511 112.903 11.1534C112.937 10.6944 112.956 10.1574 112.956 9.53839C112.956 8.91934 112.937 8.3803 112.903 7.91918C112.878 7.51935 112.807 7.1237 112.692 6.74004C112.603 6.44273 112.452 6.16728 112.25 5.93149C112.048 5.70684 111.794 5.5342 111.51 5.42825C111.154 5.29394 110.781 5.20893 110.401 5.17558C109.886 5.12551 109.37 5.10232 108.852 5.10609C108.339 5.10609 107.885 5.12083 107.483 5.15031C107.123 5.17466 106.768 5.24544 106.427 5.36087C106.139 5.4561 105.876 5.61113 105.653 5.81568C105.427 6.039 105.251 6.30829 105.138 6.60528C104.989 6.99907 104.891 7.41016 104.846 7.82864C104.779 8.40875 104.748 8.99239 104.753 9.57629C104.748 10.1518 104.779 10.727 104.846 11.2987C104.891 11.7096 104.989 12.1131 105.138 12.4989C105.251 12.7913 105.427 13.0557 105.653 13.2737C105.876 13.4745 106.14 13.624 106.427 13.7117C106.77 13.8182 107.125 13.8832 107.483 13.9054C107.885 13.9265 108.339 13.9412 108.852 13.9412Z" fill="#222222"/>
<path d="M125.906 13.7412C125.812 13.9553 125.691 14.1564 125.545 14.3392C125.375 14.5878 125.16 14.8022 124.911 14.9709C124.584 15.1758 124.221 15.3186 123.842 15.392C123.264 15.5073 122.675 15.5588 122.086 15.5457C121.257 15.5564 120.429 15.4951 119.612 15.3625C119.025 15.2715 118.458 15.0791 117.938 14.794C117.533 14.565 117.203 14.2233 116.989 13.8107C116.78 13.3652 116.677 12.8771 116.689 12.3852C116.679 11.8888 116.735 11.3933 116.854 10.9113C116.946 10.5461 117.109 10.2026 117.334 9.90058C117.538 9.63576 117.8 9.41992 118.099 9.2689C118.422 9.10759 118.765 8.99004 119.119 8.91936C119.532 8.83524 119.951 8.78524 120.372 8.76987C120.827 8.74881 121.308 8.74039 121.822 8.74039C122.434 8.7326 123.047 8.77061 123.654 8.85409C124.064 8.9104 124.468 9.00703 124.86 9.14256C125.114 9.22946 125.353 9.35596 125.568 9.51735C125.701 9.62151 125.818 9.74584 125.912 9.88584C125.912 9.14256 125.887 8.50667 125.836 7.99079C125.801 7.5444 125.718 7.10313 125.587 6.67479C125.497 6.36746 125.346 6.08114 125.143 5.83255C124.962 5.6239 124.733 5.46206 124.476 5.36089C124.179 5.24538 123.867 5.17442 123.55 5.15033C123.197 5.12086 122.796 5.10612 122.341 5.10612C121.637 5.10612 121.053 5.12787 120.588 5.17139C120.208 5.19522 119.834 5.2813 119.483 5.42617C119.237 5.52972 119.034 5.714 118.908 5.94836C118.785 6.22282 118.727 6.52184 118.739 6.82218H117.203C117.188 6.29786 117.277 5.77576 117.463 5.28509C117.639 4.86425 117.94 4.50765 118.327 4.26387C118.813 3.97037 119.353 3.77572 119.916 3.69115C120.717 3.55935 121.529 3.49875 122.341 3.51007C123.147 3.49285 123.95 3.5907 124.727 3.80064C125.346 3.97107 125.897 4.32594 126.307 4.81765C126.751 5.39169 127.05 6.06311 127.18 6.77586C127.378 7.8025 127.468 8.84691 127.448 9.89215V15.3183H125.906V13.7412ZM122.335 13.9518C122.901 13.9598 123.466 13.9204 124.025 13.8338C124.41 13.7798 124.783 13.6602 125.126 13.4801C125.379 13.3478 125.585 13.1422 125.718 12.8905C125.841 12.633 125.902 12.3503 125.895 12.0651C125.903 11.7832 125.83 11.5049 125.684 11.2629C125.518 11.0191 125.28 10.8317 125.004 10.726C124.598 10.5665 124.171 10.4658 123.736 10.427C123.093 10.3576 122.447 10.326 121.801 10.3322C121.031 10.3322 120.411 10.3491 119.939 10.3828C119.564 10.3933 119.195 10.4695 118.847 10.6081C118.73 10.6561 118.624 10.7271 118.535 10.8168C118.446 10.9065 118.376 11.0131 118.329 11.1302C118.231 11.432 118.187 11.7483 118.198 12.0651C118.188 12.3902 118.235 12.7145 118.337 13.0232C118.392 13.1553 118.473 13.2749 118.575 13.3748C118.678 13.4747 118.8 13.5528 118.933 13.6043C119.329 13.7685 119.75 13.8632 120.178 13.8844C120.719 13.937 121.439 13.9602 122.335 13.9602V13.9518Z" fill="#222222"/>
<path d="M135.571 15.5373C134.952 15.5501 134.334 15.485 133.732 15.3435C133.321 15.2422 132.92 15.1011 132.536 14.9224C132.224 14.7756 131.971 14.5257 131.822 14.2149C131.664 13.8907 131.543 13.638 131.463 13.4569V15.3183H129.925V0H131.463V4.90816C131.555 4.74063 131.672 4.58856 131.812 4.45756C132.021 4.26527 132.262 4.11066 132.524 4.00065C132.91 3.83727 133.314 3.71926 133.728 3.64901C135.204 3.42332 136.708 3.47401 138.165 3.79851C138.826 3.95837 139.43 4.29639 139.911 4.77551C140.392 5.29826 140.728 5.93684 140.887 6.62844C141.292 8.54664 141.292 10.528 140.887 12.4462C140.729 13.1349 140.392 13.7702 139.911 14.2886C139.428 14.7637 138.825 15.098 138.165 15.2551C137.316 15.4574 136.444 15.5522 135.571 15.5373ZM135.571 13.9412C136.088 13.9449 136.605 13.9217 137.119 13.8717C137.498 13.8382 137.87 13.7554 138.227 13.6254C138.509 13.522 138.764 13.3531 138.968 13.1327C139.17 12.8978 139.32 12.6229 139.408 12.3262C139.523 11.9447 139.594 11.5512 139.619 11.1534C139.653 10.6944 139.67 10.1574 139.67 9.53839C139.67 8.91934 139.653 8.3803 139.619 7.91918C139.594 7.51934 139.523 7.12368 139.408 6.74004C139.32 6.44288 139.17 6.16744 138.968 5.93149C138.765 5.70719 138.511 5.53464 138.227 5.42825C137.871 5.29393 137.498 5.20891 137.119 5.17558C136.605 5.12556 136.088 5.10237 135.571 5.10609C135.056 5.10609 134.6 5.12083 134.201 5.15031C133.842 5.17447 133.486 5.24525 133.145 5.36087C132.858 5.45548 132.594 5.60979 132.372 5.81357C132.144 6.03634 131.968 6.30579 131.856 6.60317C131.706 6.99684 131.608 7.40795 131.562 7.82653C131.496 8.40669 131.466 8.99033 131.471 9.57418C131.466 10.1496 131.496 10.7249 131.562 11.2966C131.608 11.7076 131.706 12.1111 131.856 12.4968C131.969 12.7896 132.145 13.0541 132.372 13.2716C132.594 13.4724 132.858 13.6219 133.145 13.7096C133.488 13.8163 133.843 13.8813 134.201 13.9033C134.601 13.9286 135.058 13.9412 135.571 13.9412Z" fill="#222222"/>
<path d="M142.417 3.83009H144.209L148.304 14.0402L152.185 3.86589H154.009L149.385 15.352L149.128 15.9942C149.003 16.31 148.88 16.6111 148.754 16.8933C148.634 17.1647 148.486 17.423 148.312 17.6639C147.956 18.1557 147.464 18.5334 146.896 18.7504C146.531 18.8898 146.151 18.9879 145.764 19.0431C145.25 19.1174 144.73 19.1519 144.211 19.1463V17.5502C144.644 17.5546 145.077 17.53 145.506 17.4765C145.808 17.4411 146.106 17.3704 146.391 17.266C146.787 17.1202 147.117 16.8387 147.323 16.4721C147.42 16.3058 147.549 16.011 147.549 16.011L142.417 3.83009Z" fill="#222222"/>
<path d="M79.4216 3.83009H81.2134L85.3125 14.0402L89.194 3.86589H91.0048L86.3796 15.352L86.1197 15.9942C85.9971 16.31 85.8725 16.6111 85.7478 16.8933C85.627 17.1643 85.4791 17.4225 85.3062 17.6639C84.9493 18.1546 84.4577 18.5319 83.8905 18.7504C83.5244 18.8898 83.1438 18.9879 82.7559 19.0431C82.2417 19.1175 81.7224 19.152 81.2028 19.1463V17.5502C81.6365 17.5547 82.0699 17.53 82.5002 17.4765C82.8025 17.4408 83.0996 17.3702 83.3855 17.266C83.5951 17.185 83.7889 17.0681 83.9581 16.9206C84.1002 16.7904 84.2214 16.6391 84.3173 16.4721C84.4145 16.3058 84.5413 16.011 84.5413 16.011L79.4216 3.83009Z" fill="#222222"/>
<path d="M1.48344 24.7261C1.23411 24.6067 1.02277 24.4208 0.8728 24.1892C0.727711 23.9547 0.650879 23.6846 0.650879 23.4091C0.650879 23.1336 0.727711 22.8635 0.8728 22.6289C1.0229 22.3979 1.23426 22.2128 1.48344 22.0941C1.76017 21.9644 2.06301 21.8996 2.36877 21.9046C2.62419 21.9011 2.87774 21.9483 3.11464 22.0436C3.3281 22.1295 3.5153 22.2696 3.65766 22.45L3.41679 22.6037C3.29657 22.4566 3.14104 22.3422 2.96462 22.271C2.77515 22.1958 2.57268 22.1586 2.36877 22.1615C2.12242 22.157 1.87848 22.2103 1.6567 22.3173C1.45312 22.414 1.28155 22.5667 1.16227 22.7574C1.06982 22.9021 1.00906 23.0647 0.983983 23.2344C0.958904 23.4042 0.970065 23.5773 1.01673 23.7425C1.0634 23.9076 1.14453 24.0611 1.25481 24.1929C1.36509 24.3246 1.50204 24.4317 1.6567 24.5071C1.87881 24.6131 2.12253 24.6665 2.36877 24.6629C2.57268 24.6658 2.77515 24.6286 2.96462 24.5535C3.14064 24.4816 3.29601 24.3672 3.41679 24.2208L3.65766 24.3724C3.51542 24.5533 3.32824 24.6941 3.11464 24.7809C2.87774 24.8761 2.62419 24.9233 2.36877 24.9198C2.06258 24.9245 1.7595 24.8582 1.48344 24.7261Z" fill="#222222"/>
<path d="M5.59291 24.7261C5.34459 24.606 5.13411 24.4203 4.98438 24.1892C4.84077 23.9553 4.76477 23.6864 4.76477 23.4122C4.76477 23.138 4.84077 22.8691 4.98438 22.6352C5.13411 22.4042 5.34459 22.2184 5.59291 22.0983C5.86488 21.9707 6.16178 21.9045 6.46239 21.9045C6.76299 21.9045 7.05989 21.9707 7.33186 22.0983C7.58018 22.2184 7.79066 22.4042 7.94039 22.6352C8.084 22.8691 8.16 23.138 8.16 23.4122C8.16 23.6864 8.084 23.9553 7.94039 24.1892C7.79066 24.4203 7.58018 24.606 7.33186 24.7261C7.05989 24.8537 6.76299 24.9199 6.46239 24.9199C6.16178 24.9199 5.86488 24.8537 5.59291 24.7261ZM7.16283 24.505C7.36209 24.4025 7.53051 24.2492 7.65092 24.0607C7.76705 23.8642 7.82829 23.6403 7.82829 23.4122C7.82829 23.1841 7.76705 22.9602 7.65092 22.7637C7.53051 22.5752 7.36209 22.4219 7.16283 22.3194C6.94407 22.2154 6.70476 22.1615 6.46239 22.1615C6.22001 22.1615 5.9807 22.2154 5.76194 22.3194C5.56268 22.4219 5.39426 22.5752 5.27385 22.7637C5.15772 22.9602 5.09648 23.1841 5.09648 23.4122C5.09648 23.6403 5.15772 23.8642 5.27385 24.0607C5.39426 24.2492 5.56268 24.4025 5.76194 24.505C5.9807 24.609 6.22001 24.663 6.46239 24.663C6.70476 24.663 6.94407 24.609 7.16283 24.505Z" fill="#222222"/>
<path d="M12.5278 24.1008C12.5321 24.2192 12.5044 24.3366 12.4475 24.4407C12.3906 24.5448 12.3067 24.6318 12.2046 24.6925C11.9085 24.8504 11.5742 24.9233 11.239 24.903H9.75989V21.9341H11.1925C11.5006 21.9182 11.8073 21.9858 12.0799 22.1299C12.1794 22.1856 12.2619 22.2671 12.3188 22.3657C12.3757 22.4642 12.4049 22.5763 12.4032 22.69C12.4076 22.8516 12.3476 23.0083 12.2363 23.1259C12.1084 23.251 11.947 23.3366 11.7714 23.3722C12.2757 23.4438 12.5278 23.6867 12.5278 24.1008ZM10.0874 23.2901H11.1734C11.4065 23.3037 11.6389 23.2535 11.8454 23.1448C11.9194 23.1028 11.9805 23.0413 12.0219 22.967C12.0632 22.8928 12.0833 22.8086 12.0799 22.7237C12.0842 22.6389 12.0648 22.5546 12.0237 22.4802C11.9827 22.4059 11.9217 22.3443 11.8475 22.3026C11.6391 22.1977 11.4065 22.1498 11.1734 22.1636H10.0811L10.0874 23.2901ZM12.2003 24.0966C12.2062 24.0099 12.1887 23.9232 12.1497 23.8454C12.1107 23.7677 12.0516 23.7018 11.9785 23.6544C11.7644 23.5439 11.5238 23.4944 11.2833 23.5112H10.0853V24.6714H11.2305C11.8785 24.6658 12.2025 24.4714 12.2025 24.0881L12.2003 24.0966Z" fill="#222222"/>
<path d="M16.8021 22.0983C17.0481 22.2185 17.2564 22.4034 17.4043 22.6332C17.5467 22.8686 17.6219 23.1384 17.6219 23.4133C17.6219 23.6882 17.5467 23.9579 17.4043 24.1934C17.2572 24.4238 17.0487 24.609 16.8021 24.7282C16.5355 24.8589 16.2414 24.9246 15.9443 24.9198C15.6621 24.9242 15.3831 24.8606 15.1308 24.7345C14.8972 24.6199 14.7009 24.4418 14.5645 24.2208V26H14.2391V21.9278H14.554V22.6268C14.6884 22.3988 14.8857 22.2139 15.1223 22.0941C15.3776 21.9654 15.6604 21.9004 15.9464 21.9046C16.243 21.9009 16.5363 21.9673 16.8021 22.0983ZM16.6268 24.505C16.8283 24.4043 16.9986 24.2507 17.1191 24.0608C17.2352 23.8642 17.2965 23.6403 17.2965 23.4122C17.2965 23.1841 17.2352 22.9602 17.1191 22.7637C16.9986 22.5738 16.8283 22.4202 16.6268 22.3194C16.4076 22.2154 16.168 22.1614 15.9253 22.1614C15.6826 22.1614 15.4429 22.2154 15.2238 22.3194C15.0245 22.4219 14.8561 22.5752 14.7357 22.7637C14.6195 22.9602 14.5583 23.1841 14.5583 23.4122C14.5583 23.6403 14.6195 23.8642 14.7357 24.0608C14.8561 24.2493 15.0245 24.4026 15.2238 24.505C15.4429 24.609 15.6826 24.663 15.9253 24.663C16.168 24.663 16.4076 24.609 16.6268 24.505Z" fill="#222222"/>
<path d="M22.1266 23.4796H19.2023C19.2105 23.7014 19.284 23.9159 19.4136 24.0965C19.5425 24.2805 19.7193 24.4261 19.9249 24.5176C20.3504 24.6983 20.8285 24.7134 21.2645 24.5597C21.445 24.4961 21.6074 24.3899 21.7378 24.2502L21.9259 24.4376C21.7709 24.5982 21.5807 24.7207 21.3702 24.7956C20.8383 24.9849 20.2533 24.9607 19.739 24.7282C19.4868 24.6097 19.272 24.4248 19.1178 24.1934C18.9667 23.9618 18.8887 23.6904 18.8938 23.4143C18.8888 23.143 18.9607 22.8758 19.1012 22.6434C19.2418 22.4109 19.4452 22.2228 19.6883 22.1004C19.9468 21.9743 20.2308 21.9088 20.5187 21.9088C20.8065 21.9088 21.0905 21.9743 21.349 22.1004C21.5876 22.2222 21.7884 22.4064 21.9301 22.6331C22.0716 22.866 22.1448 23.1337 22.1414 23.4059L22.1266 23.4796ZM19.8679 22.2941C19.6823 22.3822 19.5236 22.518 19.4081 22.6875C19.2926 22.857 19.2245 23.0541 19.2107 23.2585H21.8139C21.8042 23.0542 21.736 22.8569 21.6174 22.69C21.4997 22.522 21.3413 22.3865 21.1568 22.2962C20.9559 22.1997 20.7352 22.1514 20.5123 22.1551C20.2896 22.1515 20.0691 22.1991 19.8679 22.2941Z" fill="#222222"/>
<path d="M27.4428 21.9277V24.8966H27.1428V22.3825L25.6637 24.5155H25.5137L24.0347 22.3889V24.8966H23.7346V21.9277H24.0621L25.5982 24.1744L27.1407 21.9277H27.4428Z" fill="#222222"/>
<path d="M32.2839 23.4796H29.3617C29.369 23.7016 29.4426 23.9163 29.573 24.0965C29.7013 24.2811 29.8783 24.4268 30.0843 24.5176C30.5098 24.6983 30.9878 24.7134 31.4239 24.5597C31.6038 24.4961 31.7655 24.3899 31.8951 24.2502L32.0853 24.4376C31.9298 24.5986 31.7388 24.7212 31.5274 24.7956C30.9962 24.9848 30.412 24.9606 29.8984 24.7282C29.6462 24.6097 29.4314 24.4248 29.2772 24.1934C29.1255 23.962 29.0468 23.6906 29.0511 23.4143C29.0473 23.1432 29.1197 22.8765 29.2601 22.6443C29.4005 22.4122 29.6033 22.2237 29.8455 22.1004C30.1046 21.9749 30.3889 21.9097 30.677 21.9097C30.9651 21.9097 31.2494 21.9749 31.5084 22.1004C31.7462 22.2225 31.9463 22.4066 32.0874 22.6331C32.2298 22.8656 32.3031 23.1335 32.2987 23.4059L32.2839 23.4796ZM30.0251 22.2941C29.8405 22.3824 29.6824 22.5174 29.5666 22.6858C29.4525 22.8567 29.3842 23.0538 29.368 23.2585H31.9712C31.9611 23.0546 31.8938 22.8576 31.7768 22.69C31.6588 22.5215 31.4995 22.3859 31.314 22.2962C31.1133 22.1995 30.8925 22.1512 30.6696 22.1551C30.4469 22.1517 30.2265 22.1993 30.0251 22.2941Z" fill="#222222"/>
<path d="M33.8982 21.9277H34.2236V23.2901H36.5288V21.9362H36.8542V24.9051H36.5288V23.5406H34.2257V24.9051H33.9003L33.8982 21.9277Z" fill="#222222"/>
<path d="M38.8044 21.9277H39.1298V23.2901H41.4329V21.9362H41.7583V24.9051H41.4329V23.5406H39.1298V24.9051H38.8044V21.9277Z" fill="#222222"/>
<path d="M44.1964 24.7261C43.9481 24.606 43.7376 24.4203 43.5879 24.1892C43.4427 23.9559 43.3657 23.6868 43.3657 23.4122C43.3657 23.1377 43.4427 22.8686 43.5879 22.6353C43.7376 22.4042 43.9481 22.2185 44.1964 22.0983C44.4681 21.9708 44.7646 21.9046 45.0649 21.9046C45.3651 21.9046 45.6617 21.9708 45.9333 22.0983C46.1816 22.2185 46.3921 22.4042 46.5418 22.6353C46.6871 22.8686 46.764 23.1377 46.764 23.4122C46.764 23.6868 46.6871 23.9559 46.5418 24.1892C46.3921 24.4203 46.1816 24.606 45.9333 24.7261C45.6617 24.8537 45.3651 24.9198 45.0649 24.9198C44.7646 24.9198 44.4681 24.8537 44.1964 24.7261ZM45.7642 24.505C45.9646 24.4041 46.1334 24.2505 46.2523 24.0608C46.37 23.8647 46.4321 23.6406 46.4321 23.4122C46.4321 23.1838 46.37 22.9597 46.2523 22.7637C46.1334 22.574 45.9646 22.4203 45.7642 22.3194C45.5459 22.2155 45.3069 22.1615 45.0649 22.1615C44.8228 22.1615 44.5839 22.2155 44.3655 22.3194C44.1651 22.4203 43.9963 22.574 43.8774 22.7637C43.7597 22.9597 43.6976 23.1838 43.6976 23.4122C43.6976 23.6406 43.7597 23.8647 43.8774 24.0608C43.9963 24.2505 44.1651 24.4041 44.3655 24.505C44.5839 24.609 44.8228 24.6629 45.0649 24.6629C45.3069 24.6629 45.5459 24.609 45.7642 24.505Z" fill="#222222"/>
<path d="M51.2664 23.4796H48.3442C48.3515 23.7016 48.4251 23.9163 48.5555 24.0965C48.6836 24.2805 48.8596 24.4261 49.0647 24.5176C49.4909 24.6985 49.9696 24.7135 50.4064 24.5597C50.5863 24.4961 50.748 24.3899 50.8776 24.2502L51.0656 24.4376C50.9114 24.5991 50.721 24.7217 50.5099 24.7956C49.9787 24.9848 49.3945 24.9606 48.8809 24.7282C48.6277 24.6103 48.4121 24.4253 48.2575 24.1934C48.1075 23.9614 48.0295 23.6903 48.0336 23.4143C48.0286 23.143 48.1005 22.8758 48.241 22.6434C48.3815 22.4109 48.585 22.2228 48.828 22.1004C49.0871 21.9749 49.3714 21.9097 49.6595 21.9097C49.9475 21.9097 50.2318 21.9749 50.4909 22.1004C50.7287 22.2225 50.9288 22.4066 51.0699 22.6331C51.2123 22.8656 51.2856 23.1335 51.2812 23.4059L51.2664 23.4796ZM49.0076 22.2941C48.823 22.3824 48.6649 22.5174 48.5491 22.6858C48.4341 22.8562 48.3656 23.0536 48.3505 23.2585H50.9537C50.9436 23.0546 50.8763 22.8576 50.7593 22.69C50.6403 22.5224 50.4812 22.3871 50.2965 22.2962C50.0958 22.1995 49.875 22.1512 49.6521 22.1551C49.4294 22.1517 49.209 22.1993 49.0076 22.2941Z" fill="#222222"/>
<path d="M58.2917 24.6461V25.6357H57.9853V24.8966H54.7737V25.6357H54.4609V24.6461H54.6722C54.9004 24.6355 55.0589 24.4776 55.1434 24.1765C55.2443 23.7622 55.3044 23.3391 55.323 22.9132L55.3674 21.9362H57.7571V24.6545L58.2917 24.6461ZM55.4815 24.0481C55.468 24.1668 55.4296 24.2814 55.3688 24.3844C55.308 24.4875 55.2262 24.5766 55.1286 24.6461H57.4191V22.1825H55.6505L55.6104 22.9237C55.5989 23.3013 55.5565 23.6774 55.4836 24.0481H55.4815Z" fill="#222222"/>
<path d="M60.2889 24.7261C60.0405 24.606 59.8301 24.4203 59.6803 24.1892C59.5351 23.9559 59.4581 23.6868 59.4581 23.4122C59.4581 23.1377 59.5351 22.8686 59.6803 22.6353C59.8301 22.4042 60.0405 22.2185 60.2889 22.0983C60.5605 21.9708 60.857 21.9046 61.1573 21.9046C61.4575 21.9046 61.7541 21.9708 62.0257 22.0983C62.2749 22.2172 62.4857 22.4032 62.6342 22.6353C62.7795 22.8686 62.8564 23.1377 62.8564 23.4122C62.8564 23.6868 62.7795 23.9559 62.6342 24.1892C62.4857 24.4213 62.2749 24.6073 62.0257 24.7261C61.7541 24.8537 61.4575 24.9198 61.1573 24.9198C60.857 24.9198 60.5605 24.8537 60.2889 24.7261ZM61.8567 24.505C62.057 24.4041 62.2258 24.2505 62.3447 24.0608C62.4624 23.8647 62.5245 23.6406 62.5245 23.4122C62.5245 23.1838 62.4624 22.9597 62.3447 22.7637C62.2258 22.574 62.057 22.4203 61.8567 22.3194C61.6383 22.2155 61.3993 22.1615 61.1573 22.1615C60.9152 22.1615 60.6763 22.2155 60.4579 22.3194C60.2586 22.4219 60.0902 22.5752 59.9698 22.7637C59.8521 22.9597 59.79 23.1838 59.79 23.4122C59.79 23.6406 59.8521 23.8647 59.9698 24.0608C60.0902 24.2493 60.2586 24.4026 60.4579 24.505C60.6763 24.609 60.9152 24.6629 61.1573 24.6629C61.3993 24.6629 61.6383 24.609 61.8567 24.505Z" fill="#222222"/>
<path d="M69.0319 21.9277V24.8966H64.4637V21.9277H64.7891V24.6461H66.5915V21.9277H66.9169V24.6461H68.7065V21.9277H69.0319Z" fill="#222222"/>
<path d="M72.136 23.5196H71.3099V24.8966H70.9845V21.9277H71.3099V23.2753H72.136L73.4186 21.9277H73.7757L72.3959 23.3659L73.875 24.8966H73.4841L72.136 23.5196Z" fill="#222222"/>
<path d="M75.5885 24.7261C75.3393 24.6073 75.1286 24.4213 74.98 24.1892C74.8348 23.9559 74.7578 23.6868 74.7578 23.4122C74.7578 23.1377 74.8348 22.8686 74.98 22.6353C75.1286 22.4032 75.3393 22.2172 75.5885 22.0983C75.8601 21.9708 76.1567 21.9046 76.457 21.9046C76.7572 21.9046 77.0538 21.9708 77.3254 22.0983C77.5737 22.2185 77.7842 22.4042 77.9339 22.6353C78.0791 22.8686 78.1561 23.1377 78.1561 23.4122C78.1561 23.6868 78.0791 23.9559 77.9339 24.1892C77.7842 24.4203 77.5737 24.606 77.3254 24.7261C77.0538 24.8537 76.7572 24.9198 76.457 24.9198C76.1567 24.9198 75.8601 24.8537 75.5885 24.7261ZM77.1563 24.505C77.3556 24.4026 77.524 24.2493 77.6444 24.0608C77.7621 23.8647 77.8242 23.6406 77.8242 23.4122C77.8242 23.1838 77.7621 22.9597 77.6444 22.7637C77.524 22.5752 77.3556 22.4219 77.1563 22.3194C76.9379 22.2155 76.699 22.1615 76.457 22.1615C76.2149 22.1615 75.976 22.2155 75.7576 22.3194C75.5572 22.4203 75.3884 22.574 75.2695 22.7637C75.1518 22.9597 75.0897 23.1838 75.0897 23.4122C75.0897 23.6406 75.1518 23.8647 75.2695 24.0608C75.3884 24.2505 75.5572 24.4041 75.7576 24.505C75.976 24.609 76.2149 24.6629 76.457 24.6629C76.699 24.6629 76.9379 24.609 77.1563 24.505Z" fill="#222222"/>
<path d="M82.405 21.9277V24.8966H82.0797V22.1825H80.309L80.2667 22.9742C80.2491 23.3195 80.2103 23.6633 80.1505 24.0039C80.1122 24.2445 80.0213 24.4738 79.8843 24.6755C79.8253 24.7577 79.7467 24.8241 79.6556 24.8685C79.5645 24.913 79.4638 24.9342 79.3624 24.9303C79.2683 24.9267 79.1748 24.9133 79.0835 24.8903L79.1152 24.6461C79.1665 24.6585 79.2188 24.6663 79.2716 24.6692C79.3568 24.6733 79.4416 24.6537 79.5163 24.6124C79.5909 24.5711 79.6525 24.5098 79.6941 24.4355C79.7969 24.2571 79.8637 24.0604 79.8906 23.8565C79.9244 23.6249 79.9519 23.3238 79.9752 22.9511L80.0343 21.9277H82.405Z" fill="#222222"/>
<path d="M86.6794 23.2501C86.7887 23.328 86.8764 23.4321 86.9344 23.5529C86.9924 23.6736 87.0188 23.807 87.0112 23.9407C87.0188 24.0808 86.9906 24.2206 86.9292 24.3469C86.8679 24.4732 86.7754 24.5819 86.6604 24.6629C86.3534 24.8486 85.9959 24.934 85.6377 24.9072L84.3573 24.8966V21.9277H84.6827V22.9974L85.7159 23.0079C86.0543 22.9897 86.3902 23.0741 86.6794 23.2501ZM86.4132 24.4987C86.5018 24.4362 86.5728 24.352 86.6194 24.2543C86.6661 24.1566 86.6867 24.0486 86.6794 23.9407C86.6863 23.8371 86.6659 23.7334 86.6203 23.64C86.5748 23.5466 86.5056 23.4666 86.4195 23.408C86.1787 23.276 85.906 23.2126 85.6314 23.2248H84.6827V24.6755L85.6314 24.6861C85.9052 24.7054 86.1782 24.64 86.4132 24.4987Z" fill="#222222"/>
<path d="M88.507 21.9277H88.8323V23.2901H91.1376V21.9362H91.4651V24.9051H91.1397V23.5406H88.826V24.9051H88.507V21.9277Z" fill="#222222"/>
<path d="M93.8932 24.7261C93.6449 24.606 93.4344 24.4203 93.2847 24.1892C93.1395 23.9559 93.0625 23.6868 93.0625 23.4122C93.0625 23.1377 93.1395 22.8686 93.2847 22.6353C93.4344 22.4042 93.6449 22.2185 93.8932 22.0983C94.1648 21.9708 94.4614 21.9046 94.7616 21.9046C95.0619 21.9046 95.3585 21.9708 95.6301 22.0983C95.8793 22.2172 96.0901 22.4032 96.2386 22.6353C96.3838 22.8686 96.4608 23.1377 96.4608 23.4122C96.4608 23.6868 96.3838 23.9559 96.2386 24.1892C96.0901 24.4213 95.8793 24.6073 95.6301 24.7261C95.3585 24.8537 95.0619 24.9198 94.7616 24.9198C94.4614 24.9198 94.1648 24.8537 93.8932 24.7261ZM95.461 24.505C95.6614 24.4041 95.8302 24.2505 95.9491 24.0608C96.0668 23.8647 96.1289 23.6406 96.1289 23.4122C96.1289 23.1838 96.0668 22.9597 95.9491 22.7637C95.8302 22.574 95.6614 22.4203 95.461 22.3194C95.2426 22.2155 95.0037 22.1615 94.7616 22.1615C94.5196 22.1615 94.2807 22.2155 94.0623 22.3194C93.8645 22.4225 93.6976 22.5758 93.5784 22.7637C93.4607 22.9597 93.3986 23.1838 93.3986 23.4122C93.3986 23.6406 93.4607 23.8647 93.5784 24.0608C93.6988 24.2493 93.8672 24.4026 94.0665 24.505C94.2849 24.609 94.5238 24.6629 94.7659 24.6629C95.0079 24.6629 95.2469 24.609 95.4653 24.505H95.461Z" fill="#222222"/>
<path d="M100.974 23.4796H98.0407C98.0481 23.7016 98.1217 23.9163 98.252 24.0965C98.3804 24.2811 98.5573 24.4268 98.7634 24.5176C99.1889 24.6983 99.6669 24.7134 100.103 24.5597C100.283 24.4961 100.445 24.3899 100.574 24.2502L100.764 24.4376C100.609 24.5986 100.418 24.7212 100.207 24.7956C99.6753 24.9848 99.0911 24.9606 98.5774 24.7282C98.3253 24.6097 98.1104 24.4248 97.9562 24.1934C97.8046 23.962 97.7258 23.6906 97.7301 23.4143C97.7264 23.1432 97.7988 22.8765 97.9392 22.6443C98.0796 22.4122 98.2824 22.2237 98.5246 22.1004C98.7837 21.9749 99.068 21.9097 99.356 21.9097C99.6441 21.9097 99.9284 21.9749 100.188 22.1004C100.425 22.2225 100.625 22.4066 100.766 22.6331C100.909 22.8656 100.982 23.1335 100.978 23.4059L100.974 23.4796ZM98.7169 22.2941C98.5313 22.3817 98.3723 22.5169 98.2563 22.6858C98.1422 22.8567 98.0738 23.0538 98.0577 23.2585H100.661C100.651 23.0546 100.583 22.8576 100.466 22.69C100.348 22.5215 100.189 22.3859 100.004 22.2962C99.8029 22.1995 99.5822 22.1512 99.3592 22.1551C99.1337 22.1499 98.91 22.1975 98.7063 22.2941H98.7169Z" fill="#222222"/>
<path d="M105.282 24.7261C105.033 24.6073 104.822 24.4213 104.673 24.1892C104.528 23.9559 104.451 23.6868 104.451 23.4122C104.451 23.1377 104.528 22.8686 104.673 22.6353C104.822 22.4032 105.033 22.2172 105.282 22.0983C105.553 21.9708 105.85 21.9046 106.15 21.9046C106.45 21.9046 106.747 21.9708 107.019 22.0983C107.267 22.2185 107.477 22.4042 107.627 22.6353C107.772 22.8686 107.849 23.1377 107.849 23.4122C107.849 23.6868 107.772 23.9559 107.627 24.1892C107.477 24.4203 107.267 24.606 107.019 24.7261C106.747 24.8537 106.45 24.9198 106.15 24.9198C105.85 24.9198 105.553 24.8537 105.282 24.7261ZM106.85 24.505C107.049 24.4026 107.217 24.2493 107.338 24.0608C107.455 23.8647 107.517 23.6406 107.517 23.4122C107.517 23.1838 107.455 22.9597 107.338 22.7637C107.217 22.5752 107.049 22.4219 106.85 22.3194C106.631 22.2155 106.392 22.1615 106.15 22.1615C105.908 22.1615 105.669 22.2155 105.451 22.3194C105.25 22.4203 105.082 22.574 104.963 22.7637C104.845 22.9597 104.783 23.1838 104.783 23.4122C104.783 23.6406 104.845 23.8647 104.963 24.0608C105.082 24.2505 105.25 24.4041 105.451 24.505C105.669 24.609 105.908 24.6629 106.15 24.6629C106.392 24.6629 106.631 24.609 106.85 24.505Z" fill="#222222"/>
<path d="M111.872 22.1573C112.108 22.273 112.308 22.4515 112.449 22.6732C112.592 22.9016 112.665 23.1663 112.66 23.4354C112.666 23.7062 112.593 23.973 112.45 24.2035C112.308 24.434 112.101 24.6184 111.855 24.7345C111.585 24.8654 111.287 24.931 110.987 24.9261C110.653 24.9364 110.323 24.8533 110.034 24.6861C109.771 24.5258 109.563 24.2903 109.436 24.0102C109.291 23.6881 109.218 23.3379 109.225 22.9848C109.213 22.6086 109.275 22.2337 109.408 21.8814C109.523 21.6014 109.718 21.3611 109.968 21.1908C110.261 21.0052 110.587 20.8766 110.928 20.8118L112.432 20.4939L112.485 20.7613L111.052 21.056C110.751 21.1112 110.461 21.218 110.197 21.3719C109.98 21.5083 109.809 21.7053 109.704 21.9383C109.586 22.2291 109.529 22.5407 109.535 22.8542C109.647 22.5825 109.847 22.3553 110.102 22.2078C110.383 22.0471 110.703 21.9656 111.027 21.972C111.319 21.9664 111.609 22.0299 111.872 22.1573ZM111.682 24.5219C111.878 24.4212 112.042 24.2681 112.155 24.0797C112.27 23.8888 112.329 23.6702 112.326 23.448C112.33 23.2256 112.271 23.0067 112.155 22.8163C112.042 22.6335 111.879 22.4872 111.684 22.3952C111.468 22.2909 111.231 22.239 110.991 22.2436C110.751 22.2392 110.513 22.2911 110.296 22.3952C110.1 22.4864 109.934 22.6328 109.82 22.8163C109.706 23.0069 109.647 23.2258 109.651 23.448C109.648 23.6701 109.707 23.8886 109.82 24.0797C109.934 24.2687 110.099 24.4219 110.296 24.5219C110.512 24.6258 110.749 24.6797 110.989 24.6797C111.229 24.6797 111.466 24.6258 111.682 24.5219Z" fill="#222222"/>
<path d="M116.842 22.0983C117.088 22.2184 117.296 22.4034 117.444 22.6331C117.586 22.8686 117.661 23.1383 117.661 23.4133C117.661 23.6882 117.586 23.9579 117.444 24.1934C117.297 24.4238 117.088 24.609 116.842 24.7282C116.574 24.8589 116.28 24.9246 115.982 24.9198C115.7 24.9239 115.421 24.8604 115.168 24.7345C114.935 24.6193 114.739 24.4413 114.602 24.2208V26H114.285V21.9278H114.598V22.6268C114.734 22.3991 114.931 22.2144 115.168 22.0941C115.423 21.9656 115.705 21.9006 115.99 21.9046C116.285 21.9019 116.577 21.9683 116.842 22.0983ZM116.666 24.505C116.867 24.4041 117.037 24.2505 117.157 24.0607C117.274 23.8647 117.336 23.6406 117.336 23.4122C117.336 23.1838 117.274 22.9597 117.157 22.7637C117.037 22.5739 116.867 22.4203 116.666 22.3194C116.448 22.2119 116.206 22.1578 115.963 22.1615C115.72 22.1576 115.48 22.2117 115.263 22.3194C115.063 22.4203 114.894 22.574 114.775 22.7637C114.658 22.9597 114.595 23.1838 114.595 23.4122C114.595 23.6406 114.658 23.8647 114.775 24.0607C114.894 24.2504 115.063 24.4041 115.263 24.505C115.48 24.6127 115.72 24.6668 115.963 24.6629C116.206 24.6666 116.448 24.6125 116.666 24.505Z" fill="#222222"/>
<path d="M121.351 22.1868C121.467 22.2899 121.558 22.418 121.616 22.5615C121.675 22.7049 121.7 22.8598 121.689 23.0143V24.8967H121.376V24.3682C121.263 24.5475 121.098 24.689 120.903 24.7746C120.667 24.8769 120.411 24.9265 120.153 24.9198C119.838 24.9366 119.525 24.8549 119.259 24.6861C119.16 24.6195 119.078 24.5302 119.021 24.4256C118.964 24.3211 118.933 24.2043 118.93 24.0852C118.928 23.9661 118.954 23.8482 119.007 23.7413C119.06 23.6345 119.137 23.5418 119.234 23.4712C119.523 23.2946 119.861 23.2142 120.199 23.2417H121.364V23.0016C121.371 22.884 121.353 22.766 121.308 22.6567C121.264 22.5473 121.195 22.4493 121.108 22.37C120.89 22.2141 120.623 22.1395 120.356 22.1594C120.135 22.1585 119.916 22.1926 119.707 22.2605C119.518 22.3205 119.342 22.4132 119.185 22.5342L119.022 22.3236C119.205 22.1838 119.412 22.0789 119.633 22.0141C119.875 21.9395 120.127 21.9019 120.381 21.9025C120.728 21.8808 121.071 21.9814 121.351 22.1868ZM120.918 24.5156C121.116 24.403 121.273 24.2294 121.364 24.0207V23.4628H120.201C119.949 23.4429 119.697 23.4986 119.477 23.6228C119.405 23.6708 119.347 23.7362 119.307 23.8127C119.268 23.8893 119.248 23.9747 119.251 24.0608C119.248 24.1517 119.27 24.2417 119.314 24.3218C119.357 24.402 119.42 24.4694 119.498 24.5177C119.708 24.6415 119.951 24.7002 120.195 24.6861C120.447 24.6946 120.696 24.6357 120.918 24.5156Z" fill="#222222"/>
<path d="M125.558 23.5975C125.624 23.6523 125.677 23.7212 125.714 23.7991C125.751 23.8771 125.769 23.9621 125.769 24.0481C125.769 24.1344 125.752 24.2199 125.717 24.2992C125.683 24.3785 125.633 24.45 125.57 24.5092C125.419 24.6538 125.235 24.7593 125.034 24.8166C124.796 24.8909 124.548 24.9278 124.298 24.9261C124.057 24.9263 123.818 24.8923 123.586 24.8251C123.368 24.7659 123.162 24.669 122.978 24.5387L123.109 24.3281C123.272 24.4478 123.456 24.5363 123.652 24.5892C123.858 24.649 124.071 24.6795 124.286 24.6798C124.567 24.6887 124.847 24.6272 125.099 24.5008C125.194 24.462 125.276 24.3967 125.335 24.3126C125.394 24.2286 125.427 24.1294 125.431 24.027C125.431 23.9376 125.405 23.8499 125.356 23.7751C125.307 23.7002 125.236 23.6414 125.154 23.6059C124.923 23.4944 124.667 23.4423 124.41 23.4543H123.863V23.2438H124.398C124.63 23.2524 124.861 23.2032 125.069 23.1006C125.146 23.0697 125.212 23.0172 125.259 22.9495C125.306 22.8817 125.332 22.8018 125.334 22.7195C125.331 22.629 125.302 22.5412 125.251 22.4665C125.2 22.3918 125.128 22.3335 125.044 22.2983C124.814 22.189 124.56 22.137 124.305 22.1467C123.929 22.1457 123.559 22.2338 123.225 22.4036L123.128 22.1762C123.507 21.9917 123.923 21.8966 124.345 21.8983C124.672 21.8852 124.997 21.9578 125.287 22.1088C125.399 22.1582 125.495 22.239 125.562 22.3414C125.629 22.4438 125.665 22.5634 125.665 22.6858C125.665 22.7636 125.648 22.8404 125.615 22.9111C125.583 22.9819 125.536 23.045 125.477 23.0964C125.334 23.2214 125.162 23.3089 124.976 23.3512C125.19 23.3756 125.392 23.4611 125.558 23.5975Z" fill="#222222"/>
<path d="M127.926 24.7261C127.678 24.606 127.467 24.4203 127.318 24.1892C127.174 23.9553 127.098 23.6864 127.098 23.4122C127.098 23.138 127.174 22.8691 127.318 22.6352C127.467 22.4042 127.678 22.2184 127.926 22.0983C128.198 21.9707 128.495 21.9045 128.796 21.9045C129.096 21.9045 129.393 21.9707 129.665 22.0983C129.913 22.2184 130.124 22.4042 130.274 22.6352C130.417 22.8691 130.493 23.138 130.493 23.4122C130.493 23.6864 130.417 23.9553 130.274 24.1892C130.124 24.4203 129.913 24.606 129.665 24.7261C129.393 24.8537 129.096 24.9199 128.796 24.9199C128.495 24.9199 128.198 24.8537 127.926 24.7261ZM129.494 24.505C129.694 24.4041 129.863 24.2505 129.982 24.0607C130.1 23.8647 130.162 23.6406 130.162 23.4122C130.162 23.1838 130.1 22.9597 129.982 22.7637C129.863 22.574 129.694 22.4203 129.494 22.3194C129.275 22.2155 129.036 22.1615 128.794 22.1615C128.552 22.1615 128.313 22.2155 128.095 22.3194C127.896 22.4219 127.727 22.5752 127.607 22.7637C127.491 22.9602 127.43 23.1841 127.43 23.4122C127.43 23.6403 127.491 23.8642 127.607 24.0607C127.727 24.2492 127.896 24.4025 128.095 24.505C128.313 24.609 128.552 24.6629 128.794 24.6629C129.036 24.6629 129.275 24.609 129.494 24.505Z" fill="#222222"/>
<path d="M134.861 24.1007C134.865 24.2192 134.837 24.3366 134.781 24.4407C134.724 24.5448 134.64 24.6317 134.538 24.6924C134.242 24.8504 133.907 24.9233 133.572 24.903H132.093V21.9341H133.523C133.832 21.918 134.14 21.9856 134.413 22.1299C134.513 22.1848 134.596 22.2662 134.653 22.365C134.709 22.4638 134.737 22.5762 134.734 22.69C134.737 22.7699 134.724 22.8495 134.695 22.9243C134.667 22.999 134.624 23.0675 134.569 23.1259C134.441 23.2506 134.28 23.3361 134.105 23.3722C134.609 23.4438 134.861 23.6866 134.861 24.1007ZM132.421 23.2901H133.513C133.745 23.3039 133.977 23.2536 134.183 23.1448C134.257 23.1028 134.318 23.0413 134.359 22.967C134.401 22.8927 134.421 22.8086 134.417 22.7237C134.422 22.6391 134.403 22.5548 134.362 22.4804C134.322 22.406 134.261 22.3444 134.187 22.3026C133.979 22.1977 133.746 22.1497 133.513 22.1636H132.421V23.2901ZM134.533 24.0965C134.539 24.0098 134.522 23.9231 134.483 23.8454C134.444 23.7677 134.385 23.7017 134.312 23.6544C134.097 23.5439 133.856 23.4944 133.614 23.5112H132.418V24.6714H133.564C134.212 24.6657 134.536 24.4713 134.536 24.0881L134.533 24.0965Z" fill="#222222"/>
<path d="M138.66 22.1868C138.776 22.2899 138.867 22.418 138.925 22.5615C138.984 22.7049 139.009 22.8598 138.998 23.0143V24.8967H138.687V24.3682C138.572 24.5471 138.407 24.6885 138.212 24.7746C137.976 24.8768 137.721 24.9264 137.464 24.9198C137.148 24.9369 136.835 24.8552 136.568 24.6861C136.469 24.6192 136.388 24.5298 136.331 24.4253C136.274 24.3207 136.243 24.2041 136.241 24.0852C136.238 23.9662 136.264 23.8485 136.317 23.7416C136.369 23.6348 136.447 23.5421 136.543 23.4712C136.832 23.2946 137.17 23.2142 137.508 23.2417H138.673V23.0016C138.68 22.884 138.662 22.766 138.617 22.6567C138.573 22.5473 138.504 22.4493 138.417 22.37C138.199 22.2141 137.932 22.1395 137.665 22.1594C137.445 22.1584 137.227 22.1925 137.018 22.2605C136.829 22.3203 136.651 22.413 136.494 22.5342L136.331 22.3236C136.514 22.1838 136.721 22.0789 136.942 22.0141C137.184 21.9395 137.437 21.9019 137.69 21.9025C138.037 21.8808 138.38 21.9814 138.66 22.1868ZM138.237 24.5156C138.434 24.4018 138.59 24.2285 138.681 24.0207V23.4628H137.523C137.271 23.4429 137.019 23.4986 136.798 23.6228C136.727 23.6709 136.669 23.7363 136.63 23.8129C136.59 23.8896 136.571 23.9748 136.574 24.0608C136.572 24.1517 136.594 24.2417 136.637 24.3218C136.681 24.402 136.744 24.4694 136.822 24.5177C137.031 24.6416 137.273 24.7003 137.517 24.6861C137.765 24.6923 138.011 24.6335 138.229 24.5156H138.237Z" fill="#222222"/>
<path d="M140.866 21.9277H141.191V23.2901H143.497V21.9362H143.822V24.9051H143.497V23.5406H141.191V24.9051H140.866V21.9277Z" fill="#222222"/>
<path d="M145.768 21.9277H146.093V24.4545L148.513 21.9277H148.8V24.8966H148.475V22.3699L146.053 24.8966H145.768V21.9277Z" fill="#222222"/>
<path d="M153.653 23.4796H150.731C150.738 23.7016 150.812 23.9163 150.942 24.0965C151.071 24.2811 151.248 24.4268 151.454 24.5176C151.879 24.6983 152.357 24.7134 152.793 24.5597C152.973 24.4961 153.135 24.3899 153.264 24.2502L153.455 24.4376C153.299 24.5986 153.108 24.7212 152.897 24.7956C152.366 24.9848 151.781 24.9606 151.268 24.7282C151.016 24.6097 150.801 24.4248 150.647 24.1934C150.495 23.962 150.416 23.6906 150.42 23.4143C150.417 23.1432 150.489 22.8765 150.629 22.6443C150.77 22.4122 150.973 22.2237 151.215 22.1004C151.474 21.9749 151.758 21.9097 152.046 21.9097C152.334 21.9097 152.619 21.9749 152.878 22.1004C153.116 22.2225 153.316 22.4066 153.457 22.6331C153.599 22.8656 153.672 23.1335 153.668 23.4059L153.653 23.4796ZM151.397 22.2941C151.211 22.3817 151.052 22.5169 150.936 22.6858C150.822 22.8567 150.754 23.0538 150.737 23.2585H153.341C153.331 23.0546 153.263 22.8576 153.146 22.69C153.028 22.5215 152.869 22.3859 152.683 22.2962C152.483 22.1995 152.262 22.1512 152.039 22.1551C151.817 22.1515 151.597 22.1991 151.397 22.2941Z" fill="#222222"/>
</g>
<defs>
<clipPath id="clip0_3703_2160">
<rect width="154" height="26" fill="white"/>
</clipPath>
</defs>
</svg>
