<svg width="35" height="32" viewBox="0 0 35 32" fill="none" xmlns="http://www.w3.org/2000/svg">
<path d="M16.5554 0.717388C16.8667 -0.178172 18.1333 -0.178172 18.4446 0.717388L21.8563 10.5324C21.9936 10.9275 22.3623 11.1953 22.7804 11.2038L33.1693 11.4156C34.1173 11.4349 34.5086 12.6394 33.7531 13.2122L25.4728 19.4899C25.1395 19.7426 24.9986 20.176 25.1197 20.5764L28.1287 30.5222C28.4033 31.4297 27.3786 32.1742 26.6004 31.6326L18.0712 25.6975C17.7279 25.4586 17.2721 25.4586 16.9288 25.6975L8.3996 31.6326C7.62135 32.1742 6.59671 31.4297 6.87126 30.5222L9.88025 20.5764C10.0014 20.176 9.86054 19.7426 9.52725 19.4899L1.2469 13.2122C0.491368 12.6394 0.882748 11.4349 1.83067 11.4156L12.2196 11.2038C12.6377 11.1953 13.0064 10.9275 13.1437 10.5324L16.5554 0.717388Z" fill="#EE7A45"/>
</svg>
