<svg width="19" height="19" viewBox="0 0 19 19" fill="none" xmlns="http://www.w3.org/2000/svg">
<path d="M8.72852 0.857101C9.01373 0.17055 9.98627 0.170549 10.2715 0.8571L11.0399 2.7068C11.2366 3.18037 11.8096 3.36655 12.2471 3.09906L13.956 2.05428C14.5903 1.66649 15.3771 2.23814 15.2043 2.96121L14.7387 4.90931C14.6195 5.40807 14.9737 5.8955 15.4849 5.93626L17.4815 6.09547C18.2226 6.15457 18.5231 7.07952 17.9583 7.56292L16.4366 8.86531C16.047 9.19876 16.047 9.80124 16.4366 10.1347L17.9583 11.4371C18.5231 11.9205 18.2226 12.8454 17.4815 12.9045L15.4849 13.0637C14.9737 13.1045 14.6195 13.5919 14.7387 14.0907L15.2043 16.0388C15.3771 16.7619 14.5903 17.3335 13.956 16.9457L12.2471 15.9009C11.8096 15.6335 11.2366 15.8196 11.0399 16.2932L10.2715 18.1429C9.98627 18.8294 9.01373 18.8295 8.72852 18.1429L7.96011 16.2932C7.76337 15.8196 7.19037 15.6335 6.75286 15.9009L5.04398 16.9457C4.40969 17.3335 3.62288 16.7619 3.79569 16.0388L4.26126 14.0907C4.38045 13.5919 4.02632 13.1045 3.51514 13.0637L1.51852 12.9045C0.777433 12.8454 0.476898 11.9205 1.04171 11.4371L2.56343 10.1347C2.95303 9.80124 2.95303 9.19876 2.56343 8.86531L1.04171 7.56292C0.476899 7.07952 0.777432 6.15457 1.51852 6.09547L3.51514 5.93626C4.02632 5.8955 4.38045 5.40807 4.26126 4.90931L3.79569 2.96122C3.62288 2.23814 4.40969 1.66649 5.04397 2.05428L6.75286 3.09906C7.19037 3.36655 7.76337 3.18037 7.96011 2.7068L8.72852 0.857101Z" fill="#EE7A45"/>
</svg>
